<?xml version="1.0" encoding="UTF-8" standalone="no"?><svg xmlns="http://www.w3.org/2000/svg" xmlns:xlink="http://www.w3.org/1999/xlink" data-name="Layer 1" fill="#000000" height="816.2" preserveAspectRatio="xMidYMid meet" version="1" viewBox="-19.7 0.0 3019.7 816.2" width="3019.7" zoomAndPan="magnify"><g id="change1_1"><path d="M186.13,203.43c12.48-12.43,15.65-31.41,7.56-47.06l-40.07-77.53c-10.48-20.28-35.71-27.69-55.56-16.41-25.77,14.65-57.92,36.6-72.42,61.32C-13.06,189.73-19.7,226.15,90.26,438.93c109.96,212.78,143.51,228.43,219.73,235.03,28.55,2.47,65.05-11.06,91.91-23.61,20.68-9.66,29.23-34.53,18.75-54.81l-40.07-77.53c-8.09-15.65-25.4-24.04-42.76-21.05-16.8,2.9-38.82,3.15-59.01-7.77-26.06-14.08-78.37-107.2-78.37-107.2,0,0-45.7-96.53-42.11-125.94,2.78-22.78,15.72-40.6,27.8-52.63Z" fill="#ffde59"/></g><g id="change1_2"><path d="M2591.88,816.24H626.42c-132.08,0-256.54-64.32-332.93-172.07l-9.09-12.82c-5.97-8.41-3.98-20.07,4.43-26.03,8.41-5.97,20.06-3.98,26.03,4.43l9.09,12.82c69.4,97.88,182.47,156.33,302.47,156.33h1965.46c204.45,0,370.78-166.33,370.78-370.78s-166.33-370.77-370.78-370.77H440.09c-10.31,0-18.67-8.36-18.67-18.67S429.78,0,440.09,0h2151.79c225.04,0,408.12,183.08,408.12,408.12s-183.08,408.12-408.12,408.12Z" fill="#ffde59"/></g></svg>